<svg width="34" height="40" viewBox="0 0 34 40" fill="none" xmlns="http://www.w3.org/2000/svg">
<path d="M17.005 11.5C15.4137 11.5 13.8876 12.1321 12.7624 13.2574C11.6372 14.3826 11.005 15.9087 11.005 17.5C11.005 19.0913 11.6372 20.6174 12.7624 21.7426C13.8876 22.8679 15.4137 23.5 17.005 23.5C18.5963 23.5 20.1224 22.8679 21.2477 21.7426C22.3729 20.6174 23.005 19.0913 23.005 17.5C23.005 15.9087 22.3729 14.3826 21.2477 13.2574C20.1224 12.1321 18.5963 11.5 17.005 11.5ZM13.505 17.5C13.505 16.5717 13.8738 15.6815 14.5302 15.0251C15.1865 14.3687 16.0768 14 17.005 14C17.9333 14 18.8235 14.3687 19.4799 15.0251C20.1363 15.6815 20.505 16.5717 20.505 17.5C20.505 18.4283 20.1363 19.3185 19.4799 19.9749C18.8235 20.6313 17.9333 21 17.005 21C16.0768 21 15.1865 20.6313 14.5302 19.9749C13.8738 19.3185 13.505 18.4283 13.505 17.5ZM30 28L19.912 38.71C19.538 39.1071 19.0868 39.4235 18.586 39.6398C18.0852 39.8561 17.5455 39.9677 17 39.9677C16.4545 39.9677 15.9148 39.8561 15.414 39.6398C14.9132 39.4235 14.462 39.1071 14.088 38.71L4.00002 28H4.03802L4.02102 27.98L4.00002 27.955C1.41072 24.8927 -0.00685669 21.0103 2.49377e-05 17C2.49377e-05 7.611 7.61102 0 17 0C26.389 0 34 7.611 34 17C34.0069 21.0103 32.5893 24.8927 30 27.955L29.979 27.98L29.962 28H30ZM28.057 26.381C30.2851 23.7637 31.506 20.4372 31.5 17C31.5 8.992 25.008 2.5 17 2.5C8.99202 2.5 2.50003 8.992 2.50003 17C2.49377 20.4373 3.7147 23.7639 5.94302 26.381L6.25103 26.744L15.908 36.995C16.0483 37.1439 16.2175 37.2626 16.4053 37.3437C16.5931 37.4248 16.7955 37.4666 17 37.4666C17.2046 37.4666 17.407 37.4248 17.5948 37.3437C17.7826 37.2626 17.9518 37.1439 18.092 36.995L27.749 26.744L28.057 26.381Z" fill="black"/>
</svg>
