<svg width="40" height="40" viewBox="0 0 40 40" fill="none" xmlns="http://www.w3.org/2000/svg">
<path d="M15.242 28.065C21.972 28.065 27.446 22.59 27.446 15.86C27.446 9.12901 21.971 3.65302 15.242 3.65302C8.51305 3.65302 3.03804 9.12901 3.03804 15.86C3.03804 22.59 8.51305 28.065 15.242 28.065V28.065ZM15.242 4.53302C21.487 4.53302 26.567 9.61502 26.567 15.861C26.567 22.106 21.487 27.187 15.242 27.187C8.99705 27.187 3.91705 22.106 3.91705 15.861C3.91705 9.61502 8.99705 4.53302 15.242 4.53302Z" fill="black"/>
<path d="M10.2548 8.14846C10.3082 8.25226 10.4005 8.33063 10.5116 8.36632C10.6227 8.40201 10.7435 8.39211 10.8473 8.33878C15.2485 6.07783 20.6688 7.8184 22.9293 12.2187C22.9826 12.3225 23.075 12.4009 23.1861 12.4366C23.2972 12.4723 23.4179 12.4624 23.5217 12.4091C23.6255 12.3557 23.7039 12.2634 23.7396 12.1523C23.7753 12.0412 23.7654 11.9204 23.7121 11.8166C21.2299 6.98489 15.2791 5.07389 10.4465 7.55646C10.395 7.58264 10.3491 7.61876 10.3115 7.66272C10.274 7.70668 10.2455 7.75763 10.2277 7.81264C10.2099 7.86764 10.2031 7.92563 10.2078 7.98326C10.2124 8.04089 10.2284 8.09703 10.2548 8.14846Z" fill="black"/>
<path d="M36.5259 36.4136C36.6151 36.4134 36.702 36.3861 36.7753 36.3353C36.8486 36.2845 36.9047 36.2127 36.9363 36.1293C36.9678 36.046 36.9733 35.955 36.952 35.8684C36.9307 35.7819 36.8836 35.7038 36.8169 35.6446L23.7009 24.0966C23.6128 24.0252 23.5004 23.9906 23.3874 24C23.2743 24.0094 23.1692 24.0622 23.0941 24.1472C23.019 24.2323 22.9797 24.343 22.9843 24.4564C22.9889 24.5698 23.0371 24.677 23.1189 24.7556L36.2359 36.3036C36.3158 36.3746 36.419 36.4137 36.5259 36.4136Z" fill="black"/>
</svg>
